<mxfile host="app.diagrams.net" modified="2024-06-24T22:27:25.906Z" agent="Mozilla/5.0 (Windows NT 10.0; Win64; x64; rv:127.0) Gecko/20100101 Firefox/127.0" etag="qBDJNUSIS9i9gBawGBjN" version="24.6.2" type="device">
  <diagram name="Page-1" id="LNNsQbZAedwOG49ED0bC">
    <mxGraphModel dx="1900" dy="538" grid="1" gridSize="10" guides="1" tooltips="1" connect="1" arrows="1" fold="1" page="1" pageScale="1" pageWidth="850" pageHeight="1100" math="0" shadow="0">
      <root>
        <mxCell id="0" />
        <mxCell id="1" parent="0" />
        <mxCell id="efTLqDhPCuo7TQmgfcsW-8" style="rounded=0;orthogonalLoop=1;jettySize=auto;html=1;exitX=0.5;exitY=1;exitDx=0;exitDy=0;entryX=0.5;entryY=0;entryDx=0;entryDy=0;endArrow=none;endFill=0;" edge="1" parent="1" source="rlyRsFmXAgJhUjSsGYBz-1" target="rlyRsFmXAgJhUjSsGYBz-9">
          <mxGeometry relative="1" as="geometry" />
        </mxCell>
        <mxCell id="rlyRsFmXAgJhUjSsGYBz-1" value="Event" style="swimlane;fontStyle=0;childLayout=stackLayout;horizontal=1;startSize=26;fillColor=none;horizontalStack=0;resizeParent=1;resizeParentMax=0;resizeLast=0;collapsible=1;marginBottom=0;whiteSpace=wrap;html=1;" parent="1" vertex="1">
          <mxGeometry x="605" y="28" width="140" height="100" as="geometry" />
        </mxCell>
        <mxCell id="rlyRsFmXAgJhUjSsGYBz-2" value="&lt;div&gt;Id&lt;/div&gt;&lt;div&gt;Name&lt;/div&gt;&lt;div&gt;Location&lt;/div&gt;&lt;div&gt;Description&lt;br&gt;&lt;/div&gt;" style="text;strokeColor=none;fillColor=none;align=left;verticalAlign=top;spacingLeft=4;spacingRight=4;overflow=hidden;rotatable=0;points=[[0,0.5],[1,0.5]];portConstraint=eastwest;whiteSpace=wrap;html=1;" parent="rlyRsFmXAgJhUjSsGYBz-1" vertex="1">
          <mxGeometry y="26" width="140" height="74" as="geometry" />
        </mxCell>
        <mxCell id="efTLqDhPCuo7TQmgfcsW-5" style="edgeStyle=orthogonalEdgeStyle;rounded=0;orthogonalLoop=1;jettySize=auto;html=1;exitX=0.5;exitY=1;exitDx=0;exitDy=0;entryX=0.5;entryY=0;entryDx=0;entryDy=0;endArrow=none;endFill=0;startArrow=block;startFill=0;" edge="1" parent="1" source="rlyRsFmXAgJhUjSsGYBz-5" target="rlyRsFmXAgJhUjSsGYBz-32">
          <mxGeometry relative="1" as="geometry" />
        </mxCell>
        <mxCell id="rlyRsFmXAgJhUjSsGYBz-5" value="Ticket" style="swimlane;fontStyle=0;childLayout=stackLayout;horizontal=1;startSize=26;fillColor=none;horizontalStack=0;resizeParent=1;resizeParentMax=0;resizeLast=0;collapsible=1;marginBottom=0;whiteSpace=wrap;html=1;" parent="1" vertex="1">
          <mxGeometry x="605" y="428" width="140" height="80" as="geometry" />
        </mxCell>
        <mxCell id="rlyRsFmXAgJhUjSsGYBz-6" value="&lt;div&gt;Id&lt;br&gt;&lt;/div&gt;&lt;div&gt;Price&lt;/div&gt;&lt;div&gt;Discount&lt;br&gt;&lt;/div&gt;" style="text;strokeColor=none;fillColor=none;align=left;verticalAlign=top;spacingLeft=4;spacingRight=4;overflow=hidden;rotatable=0;points=[[0,0.5],[1,0.5]];portConstraint=eastwest;whiteSpace=wrap;html=1;" parent="rlyRsFmXAgJhUjSsGYBz-5" vertex="1">
          <mxGeometry y="26" width="140" height="54" as="geometry" />
        </mxCell>
        <mxCell id="efTLqDhPCuo7TQmgfcsW-3" style="rounded=0;orthogonalLoop=1;jettySize=auto;html=1;exitX=0.5;exitY=1;exitDx=0;exitDy=0;entryX=0.5;entryY=0;entryDx=0;entryDy=0;endArrow=none;endFill=0;" edge="1" parent="1" source="rlyRsFmXAgJhUjSsGYBz-9" target="rlyRsFmXAgJhUjSsGYBz-5">
          <mxGeometry relative="1" as="geometry" />
        </mxCell>
        <mxCell id="rlyRsFmXAgJhUjSsGYBz-9" value="Schedule" style="swimlane;fontStyle=0;childLayout=stackLayout;horizontal=1;startSize=26;fillColor=none;horizontalStack=0;resizeParent=1;resizeParentMax=0;resizeLast=0;collapsible=1;marginBottom=0;whiteSpace=wrap;html=1;" parent="1" vertex="1">
          <mxGeometry x="605" y="246" width="140" height="80" as="geometry" />
        </mxCell>
        <mxCell id="rlyRsFmXAgJhUjSsGYBz-10" value="Id&lt;br&gt;&lt;div&gt;StartTime&lt;/div&gt;&lt;div&gt;EndTime&lt;br&gt;&lt;/div&gt;" style="text;strokeColor=none;fillColor=none;align=left;verticalAlign=top;spacingLeft=4;spacingRight=4;overflow=hidden;rotatable=0;points=[[0,0.5],[1,0.5]];portConstraint=eastwest;whiteSpace=wrap;html=1;" parent="rlyRsFmXAgJhUjSsGYBz-9" vertex="1">
          <mxGeometry y="26" width="140" height="54" as="geometry" />
        </mxCell>
        <mxCell id="efTLqDhPCuo7TQmgfcsW-6" style="edgeStyle=orthogonalEdgeStyle;rounded=0;orthogonalLoop=1;jettySize=auto;html=1;exitX=0.5;exitY=1;exitDx=0;exitDy=0;entryX=0.5;entryY=0;entryDx=0;entryDy=0;endArrow=none;endFill=0;startArrow=block;startFill=0;" edge="1" parent="1" source="rlyRsFmXAgJhUjSsGYBz-15" target="rlyRsFmXAgJhUjSsGYBz-19">
          <mxGeometry relative="1" as="geometry" />
        </mxCell>
        <mxCell id="efTLqDhPCuo7TQmgfcsW-7" style="edgeStyle=orthogonalEdgeStyle;rounded=0;orthogonalLoop=1;jettySize=auto;html=1;exitX=0.5;exitY=1;exitDx=0;exitDy=0;entryX=0.5;entryY=0;entryDx=0;entryDy=0;endArrow=none;endFill=0;startArrow=block;startFill=0;" edge="1" parent="1" source="rlyRsFmXAgJhUjSsGYBz-15" target="rlyRsFmXAgJhUjSsGYBz-21">
          <mxGeometry relative="1" as="geometry" />
        </mxCell>
        <mxCell id="rlyRsFmXAgJhUjSsGYBz-15" value="AuthenticatedUser" style="swimlane;fontStyle=0;childLayout=stackLayout;horizontal=1;startSize=26;fillColor=none;horizontalStack=0;resizeParent=1;resizeParentMax=0;resizeLast=0;collapsible=1;marginBottom=0;whiteSpace=wrap;html=1;" parent="1" vertex="1">
          <mxGeometry x="75" y="28" width="140" height="130" as="geometry" />
        </mxCell>
        <mxCell id="rlyRsFmXAgJhUjSsGYBz-16" value="&lt;div&gt;Id&lt;/div&gt;&lt;div&gt;Email&lt;/div&gt;&lt;div&gt;Username&lt;/div&gt;&lt;div&gt;First Name&lt;/div&gt;&lt;div&gt;Last Name&lt;/div&gt;&lt;div&gt;Password&lt;br&gt;&lt;/div&gt;" style="text;strokeColor=none;fillColor=none;align=left;verticalAlign=top;spacingLeft=4;spacingRight=4;overflow=hidden;rotatable=0;points=[[0,0.5],[1,0.5]];portConstraint=eastwest;whiteSpace=wrap;html=1;" parent="rlyRsFmXAgJhUjSsGYBz-15" vertex="1">
          <mxGeometry y="26" width="140" height="104" as="geometry" />
        </mxCell>
        <mxCell id="rlyRsFmXAgJhUjSsGYBz-26" style="rounded=0;orthogonalLoop=1;jettySize=auto;html=1;exitX=0.75;exitY=1;exitDx=0;exitDy=0;entryX=0.25;entryY=0;entryDx=0;entryDy=0;endArrow=none;endFill=0;" parent="1" source="rlyRsFmXAgJhUjSsGYBz-19" target="efTLqDhPCuo7TQmgfcsW-1" edge="1">
          <mxGeometry relative="1" as="geometry">
            <mxPoint x="100" y="450" as="targetPoint" />
          </mxGeometry>
        </mxCell>
        <mxCell id="rlyRsFmXAgJhUjSsGYBz-39" style="rounded=0;orthogonalLoop=1;jettySize=auto;html=1;exitX=0.25;exitY=1;exitDx=0;exitDy=0;entryX=0.25;entryY=0;entryDx=0;entryDy=0;endArrow=none;endFill=0;" parent="1" source="rlyRsFmXAgJhUjSsGYBz-19" target="rlyRsFmXAgJhUjSsGYBz-30" edge="1">
          <mxGeometry relative="1" as="geometry" />
        </mxCell>
        <mxCell id="rlyRsFmXAgJhUjSsGYBz-19" value="Attendee" style="swimlane;fontStyle=0;childLayout=stackLayout;horizontal=1;startSize=26;fillColor=none;horizontalStack=0;resizeParent=1;resizeParentMax=0;resizeLast=0;collapsible=1;marginBottom=0;whiteSpace=wrap;html=1;" parent="1" vertex="1">
          <mxGeometry x="-45" y="248" width="140" height="62" as="geometry" />
        </mxCell>
        <mxCell id="rlyRsFmXAgJhUjSsGYBz-21" value="Admin" style="swimlane;fontStyle=0;childLayout=stackLayout;horizontal=1;startSize=26;fillColor=none;horizontalStack=0;resizeParent=1;resizeParentMax=0;resizeLast=0;collapsible=1;marginBottom=0;whiteSpace=wrap;html=1;" parent="1" vertex="1">
          <mxGeometry x="205" y="248" width="140" height="62" as="geometry" />
        </mxCell>
        <mxCell id="rlyRsFmXAgJhUjSsGYBz-30" value="Order" style="swimlane;fontStyle=0;childLayout=stackLayout;horizontal=1;startSize=26;fillColor=none;horizontalStack=0;resizeParent=1;resizeParentMax=0;resizeLast=0;collapsible=1;marginBottom=0;whiteSpace=wrap;html=1;" parent="1" vertex="1">
          <mxGeometry x="110" y="780" width="140" height="70" as="geometry" />
        </mxCell>
        <mxCell id="rlyRsFmXAgJhUjSsGYBz-31" value="&lt;div&gt;Id&lt;br&gt;&lt;/div&gt;&lt;div&gt;DateTimeOrdered&lt;/div&gt;&lt;div&gt;&lt;br&gt;&lt;/div&gt;" style="text;strokeColor=none;fillColor=none;align=left;verticalAlign=top;spacingLeft=4;spacingRight=4;overflow=hidden;rotatable=0;points=[[0,0.5],[1,0.5]];portConstraint=eastwest;whiteSpace=wrap;html=1;" parent="rlyRsFmXAgJhUjSsGYBz-30" vertex="1">
          <mxGeometry y="26" width="140" height="44" as="geometry" />
        </mxCell>
        <mxCell id="rlyRsFmXAgJhUjSsGYBz-41" style="rounded=0;orthogonalLoop=1;jettySize=auto;html=1;exitX=0.25;exitY=1;exitDx=0;exitDy=0;entryX=1;entryY=0.5;entryDx=0;entryDy=0;endArrow=none;endFill=0;" parent="1" source="rlyRsFmXAgJhUjSsGYBz-32" target="rlyRsFmXAgJhUjSsGYBz-31" edge="1">
          <mxGeometry relative="1" as="geometry" />
        </mxCell>
        <mxCell id="rlyRsFmXAgJhUjSsGYBz-32" value="PurchasedTicket" style="swimlane;fontStyle=0;childLayout=stackLayout;horizontal=1;startSize=26;fillColor=none;horizontalStack=0;resizeParent=1;resizeParentMax=0;resizeLast=0;collapsible=1;marginBottom=0;whiteSpace=wrap;html=1;" parent="1" vertex="1">
          <mxGeometry x="745" y="588" width="140" height="70" as="geometry" />
        </mxCell>
        <mxCell id="rlyRsFmXAgJhUjSsGYBz-33" value="Quantity" style="text;strokeColor=none;fillColor=none;align=left;verticalAlign=top;spacingLeft=4;spacingRight=4;overflow=hidden;rotatable=0;points=[[0,0.5],[1,0.5]];portConstraint=eastwest;whiteSpace=wrap;html=1;" parent="rlyRsFmXAgJhUjSsGYBz-32" vertex="1">
          <mxGeometry y="26" width="140" height="44" as="geometry" />
        </mxCell>
        <mxCell id="rlyRsFmXAgJhUjSsGYBz-34" value="TicketForPurchase" style="swimlane;fontStyle=0;childLayout=stackLayout;horizontal=1;startSize=26;fillColor=none;horizontalStack=0;resizeParent=1;resizeParentMax=0;resizeLast=0;collapsible=1;marginBottom=0;whiteSpace=wrap;html=1;" parent="1" vertex="1">
          <mxGeometry x="465" y="588" width="140" height="70" as="geometry" />
        </mxCell>
        <mxCell id="rlyRsFmXAgJhUjSsGYBz-35" value="&amp;nbsp;" style="text;strokeColor=none;fillColor=none;align=left;verticalAlign=top;spacingLeft=4;spacingRight=4;overflow=hidden;rotatable=0;points=[[0,0.5],[1,0.5]];portConstraint=eastwest;whiteSpace=wrap;html=1;" parent="rlyRsFmXAgJhUjSsGYBz-34" vertex="1">
          <mxGeometry y="26" width="140" height="44" as="geometry" />
        </mxCell>
        <mxCell id="rlyRsFmXAgJhUjSsGYBz-43" value="includes" style="text;html=1;align=center;verticalAlign=middle;resizable=0;points=[];autosize=1;strokeColor=none;fillColor=none;" parent="1" vertex="1">
          <mxGeometry x="456" y="758" width="70" height="30" as="geometry" />
        </mxCell>
        <mxCell id="rlyRsFmXAgJhUjSsGYBz-44" value="has" style="text;html=1;align=center;verticalAlign=middle;resizable=0;points=[];autosize=1;strokeColor=none;fillColor=none;" parent="1" vertex="1">
          <mxGeometry x="90" y="343" width="40" height="30" as="geometry" />
        </mxCell>
        <mxCell id="rlyRsFmXAgJhUjSsGYBz-45" value="stores" style="text;html=1;align=center;verticalAlign=middle;resizable=0;points=[];autosize=1;strokeColor=none;fillColor=none;" parent="1" vertex="1">
          <mxGeometry x="245" y="516" width="60" height="30" as="geometry" />
        </mxCell>
        <mxCell id="rlyRsFmXAgJhUjSsGYBz-46" value="happens in" style="text;html=1;align=center;verticalAlign=middle;resizable=0;points=[];autosize=1;strokeColor=none;fillColor=none;" parent="1" vertex="1">
          <mxGeometry x="680" y="170" width="80" height="30" as="geometry" />
        </mxCell>
        <mxCell id="rlyRsFmXAgJhUjSsGYBz-47" value="for" style="text;html=1;align=center;verticalAlign=middle;resizable=0;points=[];autosize=1;strokeColor=none;fillColor=none;" parent="1" vertex="1">
          <mxGeometry x="680" y="358" width="40" height="30" as="geometry" />
        </mxCell>
        <mxCell id="rlyRsFmXAgJhUjSsGYBz-51" value="M" style="text;html=1;align=center;verticalAlign=middle;resizable=0;points=[];autosize=1;strokeColor=none;fillColor=none;" parent="1" vertex="1">
          <mxGeometry x="681" y="213" width="30" height="30" as="geometry" />
        </mxCell>
        <mxCell id="rlyRsFmXAgJhUjSsGYBz-52" value="1" style="text;html=1;align=center;verticalAlign=middle;resizable=0;points=[];autosize=1;strokeColor=none;fillColor=none;" parent="1" vertex="1">
          <mxGeometry x="680" y="132" width="30" height="30" as="geometry" />
        </mxCell>
        <mxCell id="rlyRsFmXAgJhUjSsGYBz-53" value="1" style="text;html=1;align=center;verticalAlign=middle;resizable=0;points=[];autosize=1;strokeColor=none;fillColor=none;" parent="1" vertex="1">
          <mxGeometry x="679" y="326" width="30" height="30" as="geometry" />
        </mxCell>
        <mxCell id="rlyRsFmXAgJhUjSsGYBz-54" value="M" style="text;html=1;align=center;verticalAlign=middle;resizable=0;points=[];autosize=1;strokeColor=none;fillColor=none;" parent="1" vertex="1">
          <mxGeometry x="680" y="396" width="30" height="30" as="geometry" />
        </mxCell>
        <mxCell id="rlyRsFmXAgJhUjSsGYBz-56" value="1" style="text;html=1;align=center;verticalAlign=middle;resizable=0;points=[];autosize=1;strokeColor=none;fillColor=none;" parent="1" vertex="1">
          <mxGeometry x="260" y="820" width="30" height="30" as="geometry" />
        </mxCell>
        <mxCell id="rlyRsFmXAgJhUjSsGYBz-57" value="M" style="text;html=1;align=center;verticalAlign=middle;resizable=0;points=[];autosize=1;strokeColor=none;fillColor=none;" parent="1" vertex="1">
          <mxGeometry x="100" y="741" width="30" height="30" as="geometry" />
        </mxCell>
        <mxCell id="rlyRsFmXAgJhUjSsGYBz-58" value="1" style="text;html=1;align=center;verticalAlign=middle;resizable=0;points=[];autosize=1;strokeColor=none;fillColor=none;" parent="1" vertex="1">
          <mxGeometry x="-40" y="313" width="30" height="30" as="geometry" />
        </mxCell>
        <mxCell id="rlyRsFmXAgJhUjSsGYBz-59" value="M" style="text;html=1;align=center;verticalAlign=middle;resizable=0;points=[];autosize=1;strokeColor=none;fillColor=none;" parent="1" vertex="1">
          <mxGeometry x="770" y="660" width="30" height="30" as="geometry" />
        </mxCell>
        <mxCell id="rlyRsFmXAgJhUjSsGYBz-62" value="1" style="text;html=1;align=center;verticalAlign=middle;resizable=0;points=[];autosize=1;strokeColor=none;fillColor=none;" parent="1" vertex="1">
          <mxGeometry x="45" y="313" width="30" height="30" as="geometry" />
        </mxCell>
        <mxCell id="rlyRsFmXAgJhUjSsGYBz-63" value="1" style="text;html=1;align=center;verticalAlign=middle;resizable=0;points=[];autosize=1;strokeColor=none;fillColor=none;" parent="1" vertex="1">
          <mxGeometry x="150" y="370" width="30" height="30" as="geometry" />
        </mxCell>
        <mxCell id="efTLqDhPCuo7TQmgfcsW-12" style="rounded=0;orthogonalLoop=1;jettySize=auto;html=1;exitX=0.5;exitY=1;exitDx=0;exitDy=0;entryX=0.5;entryY=0;entryDx=0;entryDy=0;endArrow=none;endFill=0;" edge="1" parent="1" source="efTLqDhPCuo7TQmgfcsW-1" target="efTLqDhPCuo7TQmgfcsW-9">
          <mxGeometry relative="1" as="geometry" />
        </mxCell>
        <mxCell id="efTLqDhPCuo7TQmgfcsW-1" value="ShoppingCart" style="swimlane;fontStyle=0;childLayout=stackLayout;horizontal=1;startSize=26;fillColor=none;horizontalStack=0;resizeParent=1;resizeParentMax=0;resizeLast=0;collapsible=1;marginBottom=0;whiteSpace=wrap;html=1;" vertex="1" parent="1">
          <mxGeometry x="180" y="400" width="140" height="80" as="geometry" />
        </mxCell>
        <mxCell id="efTLqDhPCuo7TQmgfcsW-2" value="&lt;div&gt;Id&lt;br&gt;&lt;/div&gt;" style="text;strokeColor=none;fillColor=none;align=left;verticalAlign=top;spacingLeft=4;spacingRight=4;overflow=hidden;rotatable=0;points=[[0,0.5],[1,0.5]];portConstraint=eastwest;whiteSpace=wrap;html=1;" vertex="1" parent="efTLqDhPCuo7TQmgfcsW-1">
          <mxGeometry y="26" width="140" height="54" as="geometry" />
        </mxCell>
        <mxCell id="efTLqDhPCuo7TQmgfcsW-4" style="edgeStyle=orthogonalEdgeStyle;rounded=0;orthogonalLoop=1;jettySize=auto;html=1;exitX=0.5;exitY=1;exitDx=0;exitDy=0;entryX=0.5;entryY=0;entryDx=0;entryDy=0;endArrow=none;endFill=0;startArrow=block;startFill=0;" edge="1" parent="1" source="rlyRsFmXAgJhUjSsGYBz-5" target="rlyRsFmXAgJhUjSsGYBz-34">
          <mxGeometry relative="1" as="geometry" />
        </mxCell>
        <mxCell id="efTLqDhPCuo7TQmgfcsW-9" value="TicketInCart" style="swimlane;fontStyle=0;childLayout=stackLayout;horizontal=1;startSize=26;fillColor=none;horizontalStack=0;resizeParent=1;resizeParentMax=0;resizeLast=0;collapsible=1;marginBottom=0;whiteSpace=wrap;html=1;" vertex="1" parent="1">
          <mxGeometry x="180" y="588" width="140" height="70" as="geometry" />
        </mxCell>
        <mxCell id="efTLqDhPCuo7TQmgfcsW-10" value="Id&lt;br&gt;&lt;div&gt;Quantity&lt;/div&gt;" style="text;strokeColor=none;fillColor=none;align=left;verticalAlign=top;spacingLeft=4;spacingRight=4;overflow=hidden;rotatable=0;points=[[0,0.5],[1,0.5]];portConstraint=eastwest;whiteSpace=wrap;html=1;" vertex="1" parent="efTLqDhPCuo7TQmgfcsW-9">
          <mxGeometry y="26" width="140" height="44" as="geometry" />
        </mxCell>
        <mxCell id="efTLqDhPCuo7TQmgfcsW-11" style="rounded=0;orthogonalLoop=1;jettySize=auto;html=1;exitX=1;exitY=0.5;exitDx=0;exitDy=0;entryX=0;entryY=0.5;entryDx=0;entryDy=0;endArrow=none;endFill=0;" edge="1" parent="1" source="efTLqDhPCuo7TQmgfcsW-10" target="rlyRsFmXAgJhUjSsGYBz-35">
          <mxGeometry relative="1" as="geometry" />
        </mxCell>
        <mxCell id="efTLqDhPCuo7TQmgfcsW-13" value="1" style="text;html=1;align=center;verticalAlign=middle;resizable=0;points=[];autosize=1;strokeColor=none;fillColor=none;" vertex="1" parent="1">
          <mxGeometry x="250" y="478" width="30" height="30" as="geometry" />
        </mxCell>
        <mxCell id="efTLqDhPCuo7TQmgfcsW-14" value="M" style="text;html=1;align=center;verticalAlign=middle;resizable=0;points=[];autosize=1;strokeColor=none;fillColor=none;" vertex="1" parent="1">
          <mxGeometry x="250" y="558" width="30" height="30" as="geometry" />
        </mxCell>
        <mxCell id="efTLqDhPCuo7TQmgfcsW-15" value="1" style="text;html=1;align=center;verticalAlign=middle;resizable=0;points=[];autosize=1;strokeColor=none;fillColor=none;" vertex="1" parent="1">
          <mxGeometry x="431" y="600" width="30" height="30" as="geometry" />
        </mxCell>
        <mxCell id="efTLqDhPCuo7TQmgfcsW-16" value="M" style="text;html=1;align=center;verticalAlign=middle;resizable=0;points=[];autosize=1;strokeColor=none;fillColor=none;" vertex="1" parent="1">
          <mxGeometry x="330" y="600" width="30" height="30" as="geometry" />
        </mxCell>
        <mxCell id="efTLqDhPCuo7TQmgfcsW-17" value="makes" style="text;html=1;align=center;verticalAlign=middle;resizable=0;points=[];autosize=1;strokeColor=none;fillColor=none;" vertex="1" parent="1">
          <mxGeometry x="-3" y="515" width="60" height="30" as="geometry" />
        </mxCell>
        <mxCell id="efTLqDhPCuo7TQmgfcsW-18" value="features" style="text;html=1;align=center;verticalAlign=middle;resizable=0;points=[];autosize=1;strokeColor=none;fillColor=none;" vertex="1" parent="1">
          <mxGeometry x="353" y="643" width="70" height="30" as="geometry" />
        </mxCell>
      </root>
    </mxGraphModel>
  </diagram>
</mxfile>
